<?xml version="1.0" standalone="no"?>
<!DOCTYPE svg PUBLIC "-//W3C//DTD SVG 20010904//EN"
 "http://www.w3.org/TR/2001/REC-SVG-20010904/DTD/svg10.dtd">
<svg version="1.0" xmlns="http://www.w3.org/2000/svg"
 width="4096.000000pt" height="4094.000000pt" viewBox="0 0 4096.000000 4094.000000"
 preserveAspectRatio="xMidYMid meet">

<g transform="translate(0.000000,4094.000000) scale(0.100000,-0.100000)"
fill="#3776BC" stroke="none">
<path d="M16225 33008 c-241 -45 -417 -288 -377 -519 7 -38 23 -95 36 -127 14
-31 356 -723 761 -1537 406 -814 824 -1655 930 -1870 106 -214 554 -1114 995
-2000 441 -885 999 -2006 1240 -2490 550 -1106 1210 -2433 1870 -3760 282
-566 716 -1439 965 -1940 249 -500 748 -1504 1110 -2230 362 -726 814 -1635
1005 -2020 1424 -2868 1535 -3089 1586 -3144 101 -111 237 -169 373 -157 91 7
146 27 226 79 120 78 -72 -294 1915 3702 1035 2081 1471 2958 2065 4150 345
693 793 1593 995 2000 202 407 639 1285 970 1950 575 1156 872 1751 2015 4050
279 561 516 1043 527 1070 25 61 35 192 20 262 -27 122 -120 246 -231 307
-108 58 3 56 -2303 56 -1513 0 -2132 -3 -2170 -11 -140 -30 -262 -131 -335
-280 -23 -46 -395 -795 -828 -1664 -433 -869 -953 -1913 -1155 -2320 -350
-706 -734 -1476 -2048 -4115 -1127 -2265 -1162 -2338 -1180 -2420 -29 -143 13
-297 114 -409 33 -36 70 -63 132 -93 l86 -43 120 0 121 0 83 44 c156 82 90
-35 965 1721 429 861 913 1835 1077 2165 164 330 568 1142 898 1805 1289 2590
1805 3626 2063 4147 l269 541 51 4 c28 1 730 2 1559 0 l1509 -3 -236 -472
c-129 -260 -367 -737 -528 -1062 -161 -324 -589 -1184 -950 -1910 -362 -726
-841 -1689 -1065 -2140 -224 -451 -667 -1342 -985 -1980 -318 -638 -800 -1608
-1073 -2155 -1136 -2285 -1518 -3053 -2051 -4125 -309 -621 -585 -1176 -613
-1232 -28 -57 -54 -103 -58 -103 -3 0 -113 215 -243 478 -130 262 -606 1220
-1058 2127 -452 908 -953 1916 -1114 2240 -161 325 -602 1211 -980 1970 -378
759 -905 1817 -1170 2350 -265 534 -731 1470 -1035 2080 -532 1069 -1000 2010
-2000 4020 -257 517 -799 1606 -1205 2420 -405 814 -838 1684 -962 1933 -207
417 -230 458 -286 518 -70 75 -146 118 -246 140 -74 15 -95 16 -166 2z"/>
<path d="M14118 28825 c-86 -21 -144 -53 -211 -114 l-60 -56 -695 -1395 c-382
-767 -873 -1755 -1092 -2195 -219 -440 -653 -1313 -965 -1940 -312 -627 -780
-1567 -1040 -2090 -260 -522 -737 -1481 -1060 -2130 -323 -649 -760 -1526
-970 -1950 -210 -423 -672 -1350 -1025 -2060 -1266 -2541 -1510 -3036 -1526
-3091 -12 -41 -15 -84 -12 -154 3 -89 7 -104 43 -176 65 -132 182 -225 318
-254 36 -7 689 -10 2197 -8 2072 3 2147 4 2194 22 79 31 130 63 186 119 58 56
-20 -98 2352 4667 395 794 724 1448 731 1452 7 4 892 8 1968 8 1956 0 1957 0
2025 21 94 28 142 58 203 125 93 102 125 194 119 343 -3 83 -8 106 -36 165
-45 96 -143 192 -238 232 l-69 29 -2160 3 c-1450 2 -2176 -1 -2208 -8 -83 -17
-158 -60 -225 -126 -62 -62 -65 -68 -661 -1266 -757 -1522 -1752 -3521 -2125
-4270 -158 -317 -294 -579 -302 -582 -26 -10 -3094 -7 -3094 3 0 18 69 158
730 1486 370 743 827 1661 1015 2040 188 380 641 1289 1005 2020 364 732 830
1668 1035 2080 205 413 705 1418 1112 2235 406 817 966 1942 1244 2500 277
558 707 1422 955 1920 l452 905 270 -545 c148 -300 595 -1197 992 -1995 1126
-2260 2126 -4270 3125 -6280 221 -445 698 -1404 1060 -2130 1316 -2641 1915
-3845 2280 -4580 205 -412 612 -1231 905 -1820 293 -588 719 -1446 947 -1905
l415 -835 67 -66 c91 -90 172 -129 283 -136 146 -9 272 37 368 137 66 68 105
142 127 244 14 67 15 85 3 144 -7 37 -21 87 -30 112 -10 25 -323 657 -695
1405 -373 748 -890 1788 -1150 2310 -260 523 -712 1432 -1005 2020 -293 589
-734 1475 -980 1970 -562 1130 -1312 2638 -2045 4110 -635 1275 -1312 2637
-1995 4010 -252 506 -706 1420 -1010 2030 -304 611 -774 1556 -1045 2100 -448
900 -498 996 -548 1051 -115 126 -285 178 -449 139z"/>
</g>
</svg>
